<?xml version="1.0" encoding="UTF-8" standalone="no"?>
<!-- Created with Inkscape (http://www.inkscape.org/) -->

<svg
   xmlns:dc="http://purl.org/dc/elements/1.1/"
   xmlns:cc="http://creativecommons.org/ns#"
   xmlns:rdf="http://www.w3.org/1999/02/22-rdf-syntax-ns#"
   xmlns:svg="http://www.w3.org/2000/svg"
   xmlns="http://www.w3.org/2000/svg"
   xmlns:sodipodi="http://sodipodi.sourceforge.net/DTD/sodipodi-0.dtd"
   xmlns:inkscape="http://www.inkscape.org/namespaces/inkscape"
   width="750"
   height="1500"
   id="svg2"
   version="1.1"
   inkscape:version="0.48.5 r10040"
   inkscape:export-filename="C:\Users\Jacob McDonald\Desktop\bitmap.png"
   inkscape:export-xdpi="90"
   inkscape:export-ydpi="90"
   sodipodi:docname="Title.svg">
  <defs
     id="defs4" />
  <sodipodi:namedview
     id="base"
     pagecolor="#ffffff"
     bordercolor="#666666"
     borderopacity="1.0"
     inkscape:pageopacity="0.0"
     inkscape:pageshadow="2"
     inkscape:zoom="0.36"
     inkscape:cx="553.94467"
     inkscape:cy="834.71619"
     inkscape:document-units="px"
     inkscape:current-layer="layer1"
     showgrid="false"
     showguides="true"
     inkscape:guide-bbox="true"
     inkscape:snap-global="true"
     inkscape:snap-bbox="true"
     inkscape:snap-page="true"
     inkscape:snap-center="false"
     inkscape:snap-object-midpoints="true"
     inkscape:snap-bbox-midpoints="true"
     inkscape:window-width="1440"
     inkscape:window-height="838"
     inkscape:window-x="-8"
     inkscape:window-y="-8"
     inkscape:window-maximized="1" />
  <metadata
     id="metadata7">
    <rdf:RDF>
      <cc:Work
         rdf:about="">
        <dc:format>image/svg+xml</dc:format>
        <dc:type
           rdf:resource="http://purl.org/dc/dcmitype/StillImage" />
        <dc:title></dc:title>
      </cc:Work>
    </rdf:RDF>
  </metadata>
  <g
     inkscape:label="Layer 1"
     inkscape:groupmode="layer"
     id="layer1"
     transform="translate(0,447.63783)">
    <path
       style="opacity:1;fill:#000000;fill-opacity:1;stroke:#000000;stroke-width:0;stroke-linejoin:miter;stroke-miterlimit:4;stroke-opacity:1;stroke-dasharray:none"
       d="M 0 0 L 0 1500 L 750 1500 L 750 0 L 0 0 z M 197.40625 647.5625 C 205.21211 647.6106 211.15201 649.81966 215.25 654.1875 C 219.3479 658.55553 221.40745 664.79444 221.4375 672.90625 L 221.4375 725.34375 C 221.40745 733.45566 219.3479 739.69457 215.25 744.0625 C 211.15201 748.43044 205.21211 750.6395 197.40625 750.6875 C 189.60033 750.6395 183.62918 748.43044 179.53125 744.0625 C 175.4333 739.69457 173.37375 733.45566 173.34375 725.34375 L 173.34375 672.90625 C 173.37374 664.79444 175.43329 658.55553 179.53125 654.1875 C 183.62918 649.81966 189.60033 647.6106 197.40625 647.5625 z M 448.875 647.5625 C 456.68086 647.6106 462.62076 649.81966 466.71875 654.1875 C 470.81665 658.55553 472.90745 664.79444 472.9375 672.90625 L 472.9375 725.34375 C 472.90745 733.45566 470.81665 739.69457 466.71875 744.0625 C 462.62076 748.43044 456.68086 750.6395 448.875 750.6875 C 441.06908 750.6395 435.12918 748.43044 431.03125 744.0625 C 426.9333 739.69457 424.8425 733.45566 424.8125 725.34375 L 424.8125 672.90625 C 424.84249 664.79444 426.93329 658.55553 431.03125 654.1875 C 435.12918 649.81966 441.06908 647.6106 448.875 647.5625 z M 608.71875 647.5625 C 616.52461 647.6106 622.49576 649.81966 626.59375 654.1875 C 630.69165 658.55553 632.7512 664.79444 632.78125 672.90625 L 632.78125 725.34375 C 632.7512 733.45566 630.69165 739.69457 626.59375 744.0625 C 622.49576 748.43044 616.52461 750.6395 608.71875 750.6875 C 600.91283 750.6395 594.97293 748.43044 590.875 744.0625 C 586.77705 739.69457 584.7175 733.45566 584.6875 725.34375 L 584.6875 672.90625 C 584.71749 664.79444 586.77704 658.55553 590.875 654.1875 C 594.97293 649.81966 600.91283 647.6106 608.71875 647.5625 z M 111.4375 648.71875 L 134.75 648.71875 C 142.66386 648.74885 148.58201 650.88315 152.5 655.125 C 156.4179 659.36704 158.38095 665.56244 158.375 673.65625 L 158.375 686.75 C 158.38095 694.84395 156.4179 701.0081 152.5 705.25 C 148.58201 709.49199 142.66386 711.62629 134.75 711.65625 L 127.25 711.65625 L 127.25 749.53125 L 111.4375 749.53125 L 111.4375 648.71875 z M 240.6875 648.71875 L 264.59375 648.71875 C 272.75361 648.71285 278.70075 650.65415 282.46875 654.5 C 286.23665 658.34604 288.11045 664.13644 288.0625 671.90625 L 288.0625 679.84375 C 288.07144 685.02475 287.23218 689.2886 285.53125 692.6875 C 283.83022 696.08651 281.20641 698.62832 277.6875 700.28125 C 281.5904 701.96728 284.32522 704.64659 285.90625 708.3125 C 287.48718 711.97849 288.24445 716.4641 288.1875 721.75 L 288.1875 737.28125 C 288.16045 739.69923 288.2617 741.89378 288.46875 743.84375 C 288.67569 745.79373 289.17245 747.68927 289.9375 749.53125 L 273.8125 749.53125 C 273.37447 748.39426 273.00796 747.02448 272.75 745.4375 C 272.49197 743.85053 272.34971 741.10121 272.34375 737.15625 L 272.34375 721.3125 C 272.36171 716.68359 271.54894 713.35801 269.875 711.375 C 268.20099 709.39207 265.58192 708.44904 262 708.5 L 256.53125 708.5 L 256.53125 749.53125 L 240.6875 749.53125 L 240.6875 648.71875 z M 302.9375 648.71875 L 351.90625 648.71875 L 351.90625 663.125 L 335.34375 663.125 L 335.34375 749.53125 L 319.5 749.53125 L 319.5 663.125 L 302.9375 663.125 L 302.9375 648.71875 z M 367.6875 648.71875 L 409.59375 648.71875 L 409.59375 663.125 L 383.53125 663.125 L 383.53125 693.5 L 403.96875 693.5 L 403.96875 707.90625 L 383.53125 707.90625 L 383.53125 749.53125 L 367.6875 749.53125 L 367.6875 648.71875 z M 492.15625 648.71875 L 508 648.71875 L 508 735.125 L 534.0625 735.125 L 534.0625 749.53125 L 492.15625 749.53125 L 492.15625 648.71875 z M 549.75 648.71875 L 565.59375 648.71875 L 565.59375 749.53125 L 549.75 749.53125 L 549.75 648.71875 z M 197.40625 661.96875 C 194.85926 661.93283 192.85521 662.70211 191.40625 664.25 C 189.95725 665.79806 189.21448 668.34237 189.1875 671.90625 L 189.1875 726.34375 C 189.21448 729.90772 189.95725 732.45204 191.40625 734 C 192.85521 735.54799 194.85926 736.31726 197.40625 736.28125 C 199.95318 736.31726 201.95723 735.54799 203.40625 734 C 204.8552 732.45204 205.56671 729.90772 205.59375 726.34375 L 205.59375 671.90625 C 205.56671 668.34238 204.85519 665.79806 203.40625 664.25 C 201.95724 662.70211 199.95318 661.93284 197.40625 661.96875 z M 448.875 661.96875 C 446.32801 661.93283 444.32396 662.70211 442.875 664.25 C 441.426 665.79806 440.68323 668.34237 440.65625 671.90625 L 440.65625 726.34375 C 440.68323 729.90772 441.426 732.45204 442.875 734 C 444.32396 735.54799 446.32801 736.31726 448.875 736.28125 C 451.42193 736.31726 453.42598 735.54799 454.875 734 C 456.32395 732.45204 457.06671 729.90772 457.09375 726.34375 L 457.09375 671.90625 C 457.06671 668.34238 456.32394 665.79806 454.875 664.25 C 453.42599 662.70211 451.42193 661.93284 448.875 661.96875 z M 608.71875 661.96875 C 606.17176 661.93283 604.16771 662.70211 602.71875 664.25 C 601.26975 665.79806 600.55823 668.34237 600.53125 671.90625 L 600.53125 726.34375 C 600.55823 729.90772 601.26975 732.45204 602.71875 734 C 604.16771 735.54799 606.17176 736.31726 608.71875 736.28125 C 611.26568 736.31726 613.26973 735.54799 614.71875 734 C 616.1677 732.45204 616.91046 729.90772 616.9375 726.34375 L 616.9375 671.90625 C 616.91046 668.34238 616.16769 665.79806 614.71875 664.25 C 613.26974 662.70211 611.26568 661.93284 608.71875 661.96875 z M 127.25 663.125 L 127.25 697.25 L 134.75 697.25 C 137.27894 697.30405 139.20823 696.64078 140.53125 695.21875 C 141.8542 693.79682 142.52222 691.29601 142.53125 687.75 L 142.53125 672.625 C 142.52221 669.07913 141.8542 666.60956 140.53125 665.1875 C 139.20823 663.7656 137.27894 663.07109 134.75 663.125 L 127.25 663.125 z M 256.53125 663.125 L 256.53125 694.09375 L 262.71875 694.09375 C 265.69768 694.1538 268.02249 693.37728 269.6875 691.78125 C 271.35244 690.18533 272.19171 687.40951 272.21875 683.4375 L 272.21875 673.5 C 272.23371 669.91812 271.5802 667.29906 270.28125 665.625 C 268.98223 663.95111 266.94918 663.10709 264.15625 663.125 L 256.53125 663.125 z M 273.5 806.15625 C 275.66329 806.16961 277.30292 806.78671 278.40625 808 C 279.50956 809.21334 280.05915 810.96547 280.0625 813.21875 L 280.0625 815.9375 L 275.90625 815.9375 L 275.90625 812.9375 C 275.89874 811.94754 275.68373 811.24252 275.28125 810.8125 C 274.87875 810.38253 274.33248 810.14628 273.625 810.15625 C 272.9175 810.14627 272.37124 810.38253 271.96875 810.8125 C 271.56625 811.24252 271.35124 811.94753 271.34375 812.9375 L 271.34375 828.0625 C 271.35124 829.05083 271.56625 829.73793 271.96875 830.15625 C 272.37124 830.57458 272.9175 830.79292 273.625 830.78125 C 274.33248 830.79292 274.87875 830.57458 275.28125 830.15625 C 275.68374 829.73793 275.89874 829.05083 275.90625 828.0625 L 275.90625 824.0625 L 280.0625 824.0625 L 280.0625 827.78125 C 280.05915 830.03456 279.50956 831.75544 278.40625 832.96875 C 277.30292 834.18207 275.6633 834.79917 273.5 834.8125 C 271.33669 834.79917 269.72831 834.18207 268.625 832.96875 C 267.52168 831.75544 266.94083 830.03456 266.9375 827.78125 L 266.9375 813.21875 C 266.94083 810.96547 267.52168 809.21334 268.625 808 C 269.72832 806.78671 271.33669 806.16961 273.5 806.15625 z M 295.125 806.15625 C 297.29329 806.16961 298.92417 806.78671 300.0625 808 C 301.20081 809.21334 301.7729 810.96547 301.78125 813.21875 L 301.78125 827.78125 C 301.7729 830.03456 301.2008 831.75544 300.0625 832.96875 C 298.92417 834.18207 297.2933 834.79917 295.125 834.8125 C 292.95669 834.79917 291.29456 834.18207 290.15625 832.96875 C 289.01793 831.75544 288.44583 830.03456 288.4375 827.78125 L 288.4375 813.21875 C 288.44583 810.96547 289.01793 809.21334 290.15625 808 C 291.29457 806.78671 292.95669 806.16961 295.125 806.15625 z M 379.3125 806.15625 C 381.47579 806.16961 383.08417 806.78671 384.1875 808 C 385.29081 809.21334 385.87165 810.96547 385.875 813.21875 L 385.875 815.9375 L 381.6875 815.9375 L 381.6875 812.9375 C 381.67999 811.94754 381.49623 811.24252 381.09375 810.8125 C 380.69125 810.38253 380.14498 810.14628 379.4375 810.15625 C 378.73 810.14627 378.15249 810.38253 377.75 810.8125 C 377.3475 811.24252 377.16374 811.94753 377.15625 812.9375 L 377.15625 828.0625 C 377.16374 829.05083 377.3475 829.73793 377.75 830.15625 C 378.15249 830.57458 378.73 830.79292 379.4375 830.78125 C 380.14498 830.79292 380.69125 830.57458 381.09375 830.15625 C 381.49624 829.73793 381.67999 829.05083 381.6875 828.0625 L 381.6875 824.0625 L 385.875 824.0625 L 385.875 827.78125 C 385.87165 830.03456 385.29081 831.75544 384.1875 832.96875 C 383.08417 834.18207 381.4758 834.79917 379.3125 834.8125 C 377.14919 834.79917 375.50956 834.18207 374.40625 832.96875 C 373.30293 831.75544 372.75333 830.03456 372.75 827.78125 L 372.75 813.21875 C 372.75333 810.96547 373.30293 809.21334 374.40625 808 C 375.50957 806.78671 377.14919 806.16961 379.3125 806.15625 z M 423.34375 806.15625 C 425.51204 806.16961 427.14292 806.78671 428.28125 808 C 429.41956 809.21334 429.99165 810.96547 430 813.21875 L 430 827.78125 C 429.99165 830.03456 429.41955 831.75544 428.28125 832.96875 C 427.14292 834.18207 425.51205 834.79917 423.34375 834.8125 C 421.17544 834.79917 419.51331 834.18207 418.375 832.96875 C 417.23668 831.75544 416.66458 830.03456 416.65625 827.78125 L 416.65625 813.21875 C 416.66458 810.96547 417.23668 809.21334 418.375 808 C 419.51332 806.78671 421.17544 806.16961 423.34375 806.15625 z M 231.46875 806.5 L 235.875 806.5 L 235.875 827.53125 C 235.81916 830.27455 235.18956 832.15293 233.96875 833.15625 C 232.74793 834.15957 231.27831 834.61917 229.5625 834.5625 C 229.16917 834.56417 228.80208 834.57083 228.46875 834.5625 C 228.13542 834.55417 227.79083 834.53833 227.4375 834.5 L 227.4375 830.5 C 227.68083 830.51917 227.92417 830.52709 228.1875 830.53125 C 228.45083 830.53542 228.72542 830.53209 228.96875 830.53125 C 229.68624 830.55459 230.2775 830.37667 230.75 830 C 231.22249 829.62334 231.45125 828.90041 231.46875 827.84375 L 231.46875 806.5 z M 248.28125 806.5 L 254.71875 806.5 L 259.21875 834.5 L 254.75 834.5 L 254 829.40625 L 248.59375 829.40625 L 247.84375 834.5 L 243.8125 834.5 L 248.28125 806.5 z M 310.75 806.5 L 317.40625 806.5 C 319.67288 806.49836 321.32833 807.02546 322.375 808.09375 C 323.42164 809.1621 323.91957 810.77922 323.90625 812.9375 L 323.90625 813.9375 C 323.9104 815.375 323.67956 816.53628 323.21875 817.46875 C 322.75791 818.40125 322.03831 819.10502 321.0625 819.5625 C 322.23164 820.03001 323.07958 820.79003 323.59375 821.8125 C 324.1079 822.835 324.35457 824.07503 324.34375 825.5625 L 324.34375 827.84375 C 324.3404 830.01039 323.77955 831.6546 322.65625 832.78125 C 321.53292 833.9079 319.89079 834.49333 317.6875 834.5 L 310.75 834.5 L 310.75 806.5 z M 345.3125 806.5 L 351.4375 806.5 L 354.6875 826.375 L 357.6875 806.5 L 363.8125 806.5 L 363.8125 834.5 L 359.65625 834.5 L 359.65625 814.40625 L 356.59375 834.5 L 352.4375 834.5 L 349.15625 814.6875 L 349.15625 834.5 L 345.3125 834.5 L 345.3125 806.5 z M 394.59375 806.5 L 401.5625 806.5 C 403.76079 806.50836 405.38042 807.10296 406.46875 808.28125 C 407.55705 809.45959 408.12665 811.15797 408.125 813.40625 L 408.125 827.5625 C 408.12665 829.81081 407.55706 831.54043 406.46875 832.71875 C 405.38042 833.89707 403.76079 834.49167 401.5625 834.5 L 394.59375 834.5 L 394.59375 806.5 z M 438.9375 806.5 L 444.4375 806.5 L 448.96875 823.25 L 448.96875 806.5 L 452.875 806.5 L 452.875 834.5 L 448.375 834.5 L 442.875 814.21875 L 442.875 834.5 L 438.9375 834.5 L 438.9375 806.5 z M 465.40625 806.5 L 471.84375 806.5 L 476.34375 834.5 L 471.90625 834.5 L 471.125 829.40625 L 465.75 829.40625 L 464.96875 834.5 L 460.9375 834.5 L 465.40625 806.5 z M 484.4375 806.5 L 488.84375 806.5 L 488.84375 830.5 L 496.09375 830.5 L 496.09375 834.5 L 484.4375 834.5 L 484.4375 806.5 z M 504.0625 806.5 L 511 806.5 C 513.19829 806.50836 514.84917 807.10296 515.9375 808.28125 C 517.0258 809.45959 517.56415 811.15797 517.5625 813.40625 L 517.5625 827.5625 C 517.56415 829.81081 517.02581 831.54043 515.9375 832.71875 C 514.84917 833.89707 513.19829 834.49167 511 834.5 L 504.0625 834.5 L 504.0625 806.5 z M 295.125 810.15625 C 294.4175 810.14627 293.83999 810.38253 293.4375 810.8125 C 293.035 811.24252 292.85124 811.94753 292.84375 812.9375 L 292.84375 828.0625 C 292.85124 829.05249 293.035 829.75751 293.4375 830.1875 C 293.83999 830.6175 294.4175 830.8225 295.125 830.8125 C 295.83248 830.8225 296.37875 830.6175 296.78125 830.1875 C 297.18374 829.75751 297.39874 829.05249 297.40625 828.0625 L 297.40625 812.9375 C 297.39874 811.94754 297.18373 811.24252 296.78125 810.8125 C 296.37875 810.38253 295.83248 810.14628 295.125 810.15625 z M 423.34375 810.15625 C 422.63625 810.14627 422.05874 810.38253 421.65625 810.8125 C 421.25375 811.24252 421.06999 811.94753 421.0625 812.9375 L 421.0625 828.0625 C 421.06999 829.05249 421.25375 829.75751 421.65625 830.1875 C 422.05874 830.6175 422.63625 830.8225 423.34375 830.8125 C 424.05123 830.8225 424.5975 830.6175 425 830.1875 C 425.40249 829.75751 425.61749 829.05249 425.625 828.0625 L 425.625 812.9375 C 425.61749 811.94754 425.40248 811.24252 425 810.8125 C 424.5975 810.38253 424.05123 810.14628 423.34375 810.15625 z M 315.15625 810.5 L 315.15625 817.875 L 316.875 817.875 C 317.70248 817.89168 318.35 817.69334 318.8125 817.25 C 319.27498 816.80669 319.49249 816.04084 319.5 814.9375 L 319.5 813.375 C 319.50416 812.38003 319.32957 811.65252 318.96875 811.1875 C 318.60791 810.72253 318.05706 810.49502 317.28125 810.5 L 315.15625 810.5 z M 399 810.5 L 399 830.5 L 401.46875 830.5 C 402.17457 830.51167 402.73416 830.29333 403.125 829.875 C 403.51582 829.45668 403.71291 828.76958 403.71875 827.78125 L 403.71875 813.21875 C 403.71291 812.23045 403.51582 811.5121 403.125 811.09375 C 402.73416 810.67545 402.17456 810.48836 401.46875 810.5 L 399 810.5 z M 508.46875 810.5 L 508.46875 830.5 L 510.9375 830.5 C 511.64332 830.51167 512.20291 830.29333 512.59375 829.875 C 512.98457 829.45668 513.18166 828.76958 513.1875 827.78125 L 513.1875 813.21875 C 513.18166 812.23045 512.98457 811.5121 512.59375 811.09375 C 512.20291 810.67545 511.64331 810.48836 510.9375 810.5 L 508.46875 810.5 z M 251.28125 811.4375 L 249.15625 825.59375 L 253.40625 825.59375 L 251.28125 811.4375 z M 468.40625 811.4375 L 466.28125 825.59375 L 470.53125 825.59375 L 468.40625 811.4375 z M 315.15625 821.875 L 315.15625 830.5 L 317.6875 830.5 C 318.42998 830.515 318.9875 830.29 319.375 829.875 C 319.76248 829.46001 319.93499 828.74374 319.9375 827.71875 L 319.9375 825.28125 C 319.94416 824.00211 319.73457 823.12917 319.28125 822.625 C 318.82791 822.12085 318.11831 821.85418 317.125 821.875 L 315.15625 821.875 z "
       transform="translate(0,-447.63783)"
       id="rect2985" />
  </g>
</svg>
