<?xml version="1.0" encoding="UTF-8" standalone="no"?>
<!-- Created with Inkscape (http://www.inkscape.org/) -->
<svg xmlns:rdf="http://www.w3.org/1999/02/22-rdf-syntax-ns#" xmlns="http://www.w3.org/2000/svg" height="1500" width="750" version="1.1" xmlns:cc="http://creativecommons.org/ns#" xmlns:dc="http://purl.org/dc/elements/1.1/">
<metadata>
<rdf:RDF>
<cc:Work rdf:about="">
<dc:format>image/svg+xml</dc:format>
<dc:type rdf:resource="http://purl.org/dc/dcmitype/StillImage"/>
<dc:title/>
</cc:Work>
</rdf:RDF>
</metadata>
<g transform="translate(0,447.63783)">
<path d="M0,0v1500h750v-1500h-750zm197.41,647.56c7.8,0.05,13.74,2.26,17.84,6.63s6.16,10.6,6.19,18.72v52.43c-0.03,8.12-2.09,14.35-6.19,18.72s-10.04,6.58-17.84,6.63c-7.81-0.05-13.78-2.26-17.88-6.63s-6.16-10.6-6.19-18.72v-52.43c0.03-8.12,2.09-14.35,6.19-18.72s10.07-6.58,17.88-6.63zm251.47,0c7.8,0.05,13.74,2.26,17.84,6.63s6.19,10.6,6.22,18.72v52.43c-0.03,8.12-2.12,14.35-6.22,18.72s-10.04,6.58-17.84,6.63c-7.81-0.05-13.75-2.26-17.85-6.63s-6.19-10.6-6.22-18.72v-52.43c0.03-8.12,2.12-14.35,6.22-18.72s10.04-6.58,17.85-6.63zm159.84,0c7.8,0.05,13.78,2.26,17.87,6.63,4.1,4.37,6.16,10.6,6.19,18.72v52.43c-0.03,8.12-2.09,14.35-6.19,18.72-4.09,4.37-10.07,6.58-17.87,6.63-7.81-0.05-13.75-2.26-17.84-6.63-4.1-4.37-6.16-10.6-6.19-18.72v-52.43c0.03-8.12,2.09-14.35,6.19-18.72,4.09-4.37,10.03-6.58,17.84-6.63zm-497.28,1.16h23.31c7.91,0.03,13.83,2.16,17.75,6.4,3.92,4.25,5.88,10.44,5.88,18.54v13.09c0,8.09-1.96,14.26-5.88,18.5s-9.84,6.38-17.75,6.41h-7.5v37.87h-15.81v-100.81zm129.25,0h23.9c8.16-0.01,14.11,1.93,17.88,5.78s5.64,9.64,5.59,17.41v7.93c0.01,5.18-0.83,9.45-2.53,12.85s-4.32,5.94-7.84,7.59c3.9,1.69,6.64,4.37,8.22,8.03,1.58,3.67,2.33,8.15,2.28,13.44v15.53c-0.03,2.42,0.07,4.61,0.28,6.56s0.7,3.85,1.47,5.69h-16.13c-0.44-1.14-0.8-2.51-1.06-4.09-0.26-1.59-0.4-4.34-0.41-8.28v-15.85c0.02-4.63-0.79-7.95-2.46-9.93-1.68-1.99-4.3-2.93-7.88-2.88h-5.47v41.03h-15.84v-100.81zm62.25,0h48.97v14.4h-16.57v86.41h-15.84v-86.41h-16.56v-14.4zm64.75,0h41.9v14.4h-26.06v30.38h20.44v14.41h-20.44v41.62h-15.84v-100.81zm124.47,0h15.84v86.4h26.06v14.41h-41.9v-100.81zm57.59,0h15.84v100.81h-15.84v-100.81zm-352.34,13.25c-2.55-0.04-4.55,0.73-6,2.28s-2.2,4.09-2.22,7.66v54.43c0.02,3.57,0.77,6.11,2.22,7.66s3.45,2.32,6,2.28c2.54,0.04,4.55-0.73,6-2.28s2.16-4.09,2.18-7.66v-54.43c-0.02-3.57-0.73-6.11-2.18-7.66s-3.46-2.32-6-2.28zm251.47,0c-2.55-0.04-4.56,0.73-6,2.28-1.45,1.55-2.2,4.09-2.22,7.66v54.43c0.02,3.57,0.77,6.11,2.22,7.66,1.44,1.55,3.45,2.32,6,2.28,2.54,0.04,4.55-0.73,6-2.28,1.44-1.55,2.19-4.09,2.21-7.66v-54.43c-0.02-3.57-0.77-6.11-2.21-7.66-1.45-1.55-3.46-2.32-6-2.28zm159.84,0c-2.55-0.04-4.55,0.73-6,2.28s-2.16,4.09-2.19,7.66v54.43c0.03,3.57,0.74,6.11,2.19,7.66s3.45,2.32,6,2.28c2.55,0.04,4.55-0.73,6-2.28s2.19-4.09,2.22-7.66v-54.43c-0.03-3.57-0.77-6.11-2.22-7.66s-3.45-2.32-6-2.28zm-481.47,1.15v34.13h7.5c2.53,0.05,4.46-0.61,5.78-2.03s1.99-3.92,2-7.47v-15.13c-0.01-3.54-0.68-6.01-2-7.43s-3.25-2.12-5.78-2.07h-7.5zm129.28,0v30.97h6.19c2.98,0.06,5.3-0.71,6.97-2.31,1.66-1.59,2.5-4.37,2.53-8.34v-9.94c0.01-3.58-0.64-6.2-1.94-7.88-1.3-1.67-3.33-2.51-6.12-2.5h-7.63zm16.97,143.04c2.16,0.01,3.8,0.63,4.91,1.84,1.1,1.21,1.65,2.97,1.65,5.22v2.72h-4.15v-3c-0.01-0.99-0.23-1.7-0.63-2.13s-0.95-0.66-1.66-0.65c-0.7-0.01-1.25,0.22-1.65,0.65s-0.62,1.14-0.63,2.13v15.12c0.01,0.99,0.23,1.68,0.63,2.1,0.4,0.41,0.95,0.63,1.65,0.62,0.71,0.01,1.26-0.21,1.66-0.62,0.4-0.42,0.62-1.11,0.63-2.1v-4h4.15v3.72c0,2.25-0.55,3.98-1.65,5.19-1.11,1.21-2.75,1.83-4.91,1.84-2.16-0.01-3.77-0.63-4.88-1.84-1.1-1.21-1.68-2.94-1.68-5.19v-14.56c0-2.25,0.58-4.01,1.68-5.22,1.11-1.21,2.72-1.83,4.88-1.84zm21.62,0c2.17,0.01,3.8,0.63,4.94,1.84s1.71,2.97,1.72,5.22v14.56c-0.01,2.25-0.58,3.98-1.72,5.19s-2.77,1.83-4.94,1.84c-2.16-0.01-3.83-0.63-4.96-1.84-1.14-1.21-1.71-2.94-1.72-5.19v-14.56c0.01-2.25,0.58-4.01,1.72-5.22,1.13-1.21,2.8-1.83,4.96-1.84zm84.19,0c2.17,0.01,3.77,0.63,4.88,1.84,1.1,1.21,1.68,2.97,1.69,5.22v2.72h-4.19v-3c-0.01-0.99-0.19-1.7-0.6-2.13-0.4-0.43-0.95-0.66-1.65-0.65-0.71-0.01-1.29,0.22-1.69,0.65s-0.59,1.14-0.59,2.13v15.12c0,0.99,0.19,1.68,0.59,2.1,0.4,0.41,0.98,0.63,1.69,0.62,0.7,0.01,1.25-0.21,1.65-0.62,0.41-0.42,0.59-1.11,0.6-2.1v-4h4.19v3.72c-0.01,2.25-0.59,3.98-1.69,5.19-1.11,1.21-2.71,1.83-4.88,1.84-2.16-0.01-3.8-0.63-4.9-1.84-1.11-1.21-1.66-2.94-1.66-5.19v-14.56c0-2.25,0.55-4.01,1.66-5.22,1.1-1.21,2.74-1.83,4.9-1.84zm44.03,0c2.17,0.01,3.8,0.63,4.94,1.84s1.71,2.97,1.72,5.22v14.56c-0.01,2.25-0.58,3.98-1.72,5.19s-2.77,1.83-4.94,1.84c-2.16-0.01-3.83-0.63-4.96-1.84-1.14-1.21-1.72-2.94-1.72-5.19v-14.56c0-2.25,0.58-4.01,1.72-5.22,1.13-1.21,2.8-1.83,4.96-1.84zm-191.87,0.34h4.41v21.03c-0.06,2.74-0.69,4.62-1.91,5.63-1.22,1-2.69,1.46-4.41,1.4-0.39,0-0.76,0.01-1.09,0s-0.68-0.02-1.03-0.06v-4c0.24,0.02,0.48,0.03,0.75,0.03,0.26,0.01,0.54,0,0.78,0,0.72,0.02,1.31-0.15,1.78-0.53s0.7-1.1,0.72-2.16v-21.34zm16.81,0h6.44l4.5,28h-4.47l-0.75-5.09h-5.41l-0.75,5.09h-4.03l4.47-28zm62.47,0h6.66c2.26,0,3.92,0.53,4.97,1.59,1.04,1.07,1.54,2.69,1.53,4.85v1c0,1.44-0.23,2.6-0.69,3.53s-1.18,1.64-2.16,2.09c1.17,0.47,2.02,1.23,2.53,2.25,0.52,1.03,0.76,2.27,0.75,3.75v2.28c0,2.17-0.56,3.81-1.68,4.94-1.13,1.13-2.77,1.71-4.97,1.72h-6.94v-28zm34.56,0h6.13l3.25,19.88,3-19.88h6.12v28h-4.15v-20.09l-3.07,20.09h-4.15l-3.28-19.81v19.81h-3.85v-28zm49.28,0h6.97c2.2,0.01,3.82,0.6,4.91,1.78s1.66,2.88,1.65,5.13v14.15c0.01,2.25-0.56,3.98-1.65,5.16s-2.71,1.77-4.91,1.78h-6.97v-28zm44.35,0h5.5l4.53,16.75v-16.75h3.91v28h-4.5l-5.5-20.28v20.28h-3.94v-28zm26.47,0h6.43l4.5,28h-4.43l-0.79-5.09h-5.37l-0.78,5.09h-4.03l4.47-28zm19.03,0h4.4v24h7.25v4h-11.65v-28zm19.62,0h6.94c2.2,0.01,3.85,0.6,4.94,1.78s1.62,2.88,1.62,5.13v14.15c0,2.25-0.53,3.98-1.62,5.16s-2.74,1.77-4.94,1.78h-6.94v-28zm-208.94,3.66c-0.7-0.01-1.28,0.22-1.68,0.65s-0.59,1.14-0.6,2.13v15.12c0.01,0.99,0.2,1.7,0.6,2.13s0.98,0.63,1.68,0.62c0.71,0.01,1.26-0.19,1.66-0.62s0.62-1.14,0.63-2.13v-15.12c-0.01-0.99-0.23-1.7-0.63-2.13s-0.95-0.66-1.66-0.65zm128.22,0c-0.7-0.01-1.28,0.22-1.68,0.65-0.41,0.43-0.59,1.14-0.6,2.13v15.12c0.01,0.99,0.19,1.7,0.6,2.13,0.4,0.43,0.98,0.63,1.68,0.62,0.71,0.01,1.26-0.19,1.66-0.62s0.62-1.14,0.62-2.13v-15.12c0-0.99-0.22-1.7-0.62-2.13s-0.95-0.66-1.66-0.65zm-108.18,0.34v7.38h1.72c0.82,0.01,1.47-0.19,1.93-0.63s0.68-1.21,0.69-2.31v-1.56c0-1-0.17-1.73-0.53-2.19-0.36-0.47-0.91-0.69-1.69-0.69h-2.12zm83.84,0v20h2.47c0.7,0.01,1.26-0.21,1.65-0.62,0.4-0.42,0.59-1.11,0.6-2.1v-14.56c-0.01-0.99-0.2-1.71-0.6-2.13-0.39-0.41-0.95-0.6-1.65-0.59h-2.47zm109.47,0v20h2.47c0.7,0.01,1.26-0.21,1.65-0.62,0.39-0.42,0.59-1.11,0.6-2.1v-14.56c-0.01-0.99-0.21-1.71-0.6-2.13-0.39-0.41-0.95-0.6-1.65-0.59h-2.47zm-257.19,0.94l-2.12,14.15h4.25l-2.13-14.15zm217.13,0l-2.13,14.15h4.25l-2.12-14.15zm-153.25,10.44v8.62h2.53c0.74,0.02,1.3-0.21,1.69-0.62,0.38-0.42,0.55-1.14,0.56-2.16v-2.44c0-1.28-0.21-2.15-0.66-2.66-0.45-0.5-1.16-0.77-2.16-0.74h-1.96z" transform="translate(0,-447.63783)" stroke-miterlimit="4" stroke-width="0" fill="#000"/>
</g>
</svg>
